<svg xmlns="http://www.w3.org/2000/svg" version="1.1" xmlns:xlink="http://www.w3.org/1999/xlink" xmlns:svgjs="http://svgjs.dev/svgjs" width="1000" height="1000" viewBox="0 0 1000 1000"><rect width="1000" height="1000" fill="#ffffff"></rect><g transform="matrix(0.7,0,0,0.7,149.57575757575756,321.18957294041627)"><svg viewBox="0 0 396 202" data-background-color="#ffffff" preserveAspectRatio="xMidYMid meet" height="510" width="1000" xmlns="http://www.w3.org/2000/svg" xmlns:xlink="http://www.w3.org/1999/xlink"><g id="tight-bounds" transform="matrix(1,0,0,1,0.2400000000000091,0.1756478040221765)"><svg viewBox="0 0 395.52 201.64870439195565" height="201.64870439195565" width="395.52"><g><svg viewBox="0 0 397.4975999999999 202.6569479139154" height="201.64870439195565" width="395.52"><g><rect width="397.4975999999999" height="5.027273304529293" x="0" y="128.72281316240964" fill="#8d021f" opacity="1" stroke-width="0" stroke="transparent" fill-opacity="1" class="rect-o-0" data-fill-palette-color="secondary" rx="1%" id="o-0" data-palette-color="#8d021f"></rect></g><g transform="matrix(1,0,0,1,0.9887999999999693,146.91048778769624)"><svg viewBox="0 0 395.52 55.74646012621915" height="55.74646012621915" width="395.52"><g><svg viewBox="0 0 395.52 55.74646012621915" height="55.74646012621915" width="395.52"><g><svg viewBox="0 0 395.52 55.74646012621915" height="55.74646012621915" width="395.52"><g transform="matrix(1,0,0,1,0,0)"><svg width="395.52" viewBox="2.6500000953674316 -36.599998474121094 261.42999267578125 36.849998474121094" height="55.74646012621915" data-palette-color="#ee3e38"><path d="M2.65-36.6L12.25-36.6 20.05-15.6Q20.6-14.1 20.9-12.6 21.2-11.1 21.5-9.55L21.5-9.55Q21.9-11.15 22.13-12.55 22.35-13.95 22.85-15.4L22.85-15.4 30.5-36.6 39.3-36.6 39.3-0.05 32.55-0.05 32.55-24.85Q32.55-25.75 32.65-26.68 32.75-27.6 32.8-28.45L32.8-28.45Q32.5-27.55 32.23-26.65 31.95-25.75 31.6-24.85L31.6-24.85 22.65 0 18.95 0 9.75-24.85Q9.4-25.75 9.13-26.65 8.85-27.55 8.55-28.45L8.55-28.45Q8.6-27.6 8.7-26.68 8.8-25.75 8.8-24.85L8.8-24.85 8.8-0.05 3.35-0.05 3.35-33.55 2.65-36.6ZM54.95-36.6L60.4-36.6 73.35 0 65.95 0 62.35-10.5 51.45-10.5 47.8 0 42 0 54.95-36.6ZM60.7-15.4L56.9-27.9 53.15-15.4 60.7-15.4ZM76.05-36.55L84.25-36.55 98.65-14.65Q99.2-13.85 99.7-13.03 100.2-12.2 100.7-11.35L100.7-11.35Q100.65-12.3 100.52-13.28 100.4-14.25 100.4-15.2L100.4-15.2 100.4-36.55 105.95-36.55 105.95 0.25 100.55 0.25 84.1-24.85Q83.6-25.7 83.05-26.55 82.5-27.4 82-28.2L82-28.2Q82.1-27.4 82.2-26.55 82.3-25.7 82.3-24.85L82.3-24.85 82.3 0 76.75 0 76.75-33.5 76.05-36.55ZM111.74-36.6L111.74-36.6 119.34-36.6 119.34 0 112.44 0 112.44-33.55Q112.44-33.6 112.27-34.3 112.09-35 111.94-35.75 111.79-36.5 111.74-36.6ZM125.89-33.55L125.19-36.6 146.64-36.6 146.64-31.65 132.84-31.65 132.84-21.3 143.49-21.3 143.49-16.35 132.84-16.35 132.84 0 125.89 0 125.89-33.55ZM148.54-36.6L155.94-36.6 163.24-23 170.74-36.6 176.74-36.6 165.89-16.65 165.89 0 159.24 0 159.24-16.65 148.54-36.6ZM179.09-31.7L179.09-36.6 204.24-36.6 204.24-32.95 186.34-4.95 205.14-4.95 204.54 0 177.89 0 177.89-4.1 195.44-31.7 179.09-31.7ZM209.13-33.55L208.38-36.6 231.38-36.6 231.38-31.65 215.98-31.65 215.98-21.3 227.78-21.3 227.78-16.35 215.98-16.35 215.98-4.95 231.38-4.95 231.38 0 209.13 0 209.13-33.55ZM236.53-33.55L235.78-36.6 248.33-36.6Q251.68-36.6 254.48-35.68 257.28-34.75 258.98-32.58 260.68-30.4 260.68-26.6L260.68-26.6Q260.68-24.5 259.58-22.55 258.48-20.6 256.71-19.23 254.93-17.85 252.88-17.35L252.88-17.35 264.08 0 256.28 0 246.13-16.3 243.38-16.3 243.38 0 236.53 0 236.53-33.55ZM247.68-31.6L243.38-31.6 243.38-21.2 246.58-21.2Q248.53-21.2 250.08-21.68 251.63-22.15 252.53-23.35 253.43-24.55 253.43-26.65L253.43-26.65Q253.43-28.3 252.63-29.4 251.83-30.5 250.53-31.05 249.23-31.6 247.68-31.6L247.68-31.6Z" opacity="1" transform="matrix(1,0,0,1,0,0)" fill="#ee3e38" class="undefined-text-0" data-fill-palette-color="primary" id="text-0"></path></svg></g></svg></g></svg></g></svg></g><g transform="matrix(1,0,0,1,147.24904690198449,0)"><svg viewBox="0 0 102.99950619603096 115.56241184165232" height="115.56241184165232" width="102.99950619603096"><g><svg xmlns="http://www.w3.org/2000/svg" xmlns:xlink="http://www.w3.org/1999/xlink" version="1.1" x="8" y="0" viewBox="17.067598342895508 3.9997432231903076 68.93209075927734 91.56326293945312" enable-background="new 0 0 100 100" xml:space="preserve" height="115.56241184165232" width="86.99950619603096" class="icon-icon-0" data-fill-palette-color="accent" id="icon-0"><path d="M20.948 44.239c-0.636 0.353-0.998 1.41-0.813 2.956 0.177 1.543 1.996 9.002 3.318 11.729 1.316 2.727 3.645 5.266 5.091 6.41 0.761 0.601 0.614 0.827 0.965 1.543 0.352 0.72 1.432 3.069 1.806 3.388 0.103 0.149 0.069 0.385 0.069 0.738 0 0.352 0.003 19.648 0.003 19.648s2.016 4.912 18.249 4.912c16.23 0 17.185-5.456 17.185-5.456s-1.274-20.139-1.543-23.319c-0.276-3.183-0.092-3.457-0.092-3.457s0.228-0.226 1.226-1.543c1.001-1.318 18.061-21.257 19.229-24.412 0.774-2.091 0.149-2.326-0.498-3.413-0.957-1.587-6.41-15.732-11.549-19.093-2.091-1.363-2.61 0.073-3.183 0.274-1.41 0.5-6.864 2.592-7.909 3.045-1.046 0.457-5.273 2.32-7.912 2.956-2.636 0.636-5.406 0.822-5.862 1.729-0.454 0.91-0.863 4.773 1.045 6.092 1.908 1.316 5.273 2.271 7.727 2.362 2.458 0.092 7.823-2.815 8.868-3.499 0 0 0.272 0.227 0.637 0.138 0 0 0.906 4.726 2.271 5.955 0 0-6.25 1.429-8.181 2.702-1.933 1.275-3.479 1.797-6.617 6.64-3.134 4.84-8.659 12.683-9.817 14.25s-3.067 1.567-1.364-0.818c1.707-2.388 4.229-5.728 5.863-8.318 1.641-2.588 3.955-4.978 4.229-6.275 0.271-1.294-0.951-2.063-3.16-1.997-2.362 0.064-5.498 0.863-7.954 1.725-0.813 0.288-2.635 1.207-3.73 2.025-1.089 0.816-3.293 3-4.792 4.225-1.499 1.229-2.558 3.057-3.921 1.762-0.894-0.847-4.126-2.694-5.559-3.919C22.837 44.692 21.897 43.715 20.948 44.239z" fill="#8d021f" data-fill-palette-color="accent"></path><path d="M19.497 31.26c-0.962 0.764-3.772 3.296-1.663 5.636 2.116 2.345 5.732 5.799 7.572 6.958 1.842 1.159 4.685 3.114 5.818 2.953 1.137-0.157 1.817-1.045 2.295-1.59 0.479-0.547 1.659-1.524 1.751-2.182 0.09-0.661-0.977-2.273-1.593-3.227-0.611-0.958-2.636-3.866-4.314-5.57-1.684-1.706-2.58-2.542-3.958-3.796C23.634 28.83 21.679 29.532 19.497 31.26z" fill="#8d021f" data-fill-palette-color="accent"></path><path d="M29.762 21.1c-2.524 1.773-3.719 4.671-2.217 6.648 1.501 1.978 3.545 4.704 4.261 5.728 0.716 1.023 3.51 4.364 4.5 5.42 0.991 1.059 3.477 3.036 6.446 1.399 2.968-1.635 4.842-3.07 4.502-4.978-0.342-1.908-1.811-3.511-3.003-4.944-1.192-1.43-4.192-5.08-5.149-6.444-0.954-1.363-0.674-0.993-1.159-1.601C36.885 20.998 33.879 18.205 29.762 21.1z" fill="#8d021f" data-fill-palette-color="accent"></path><path d="M42.084 11.134c-1.919 1.43-3.274 5.179-1.911 7.671 1.367 2.489 2.592 4.671 3.991 5.763 1.396 1.09 1.671 0.819 1.773-0.99 0.105-1.808 0.591-3.033 2.016-3.479 1.43-0.443 3.708-0.954 4.428-1.43 0.716-0.479 2.897-1.145 0.885-2.901-0.744-0.647-2.285-2.522-3.104-3.476-0.815-0.955-1.293-2.42-1.875-2.863C47.71 8.984 44.64 9.225 42.084 11.134z" fill="#8d021f" data-fill-palette-color="accent"></path><path d="M57.111 4.358c-1.996 0.802-5.287 3.324-3.605 6.432 1.685 3.109 2.32 5.396 5.063 5.39 2.74-0.009 3.249-0.302 4.485-0.697 1.239-0.396 5.645-2.055 4.118-4.668-1.529-2.616-1.872-3.302-2.646-4.129C63.749 5.857 60.461 3.006 57.111 4.358z" fill="#8d021f" data-fill-palette-color="accent"></path><path d="M50.301 36.72c-0.658 0.856-0.974 1.573 0.771 1.457 1.745-0.116 2.904-0.122 3.521 0.014 0.857 0.188 1.311-0.973 2.029-1.529 0.697-0.537 1.12-1.029 2.005-1.43 0.888-0.401-1.401-1.577-2.776-1.917-1.371-0.343-3.318-0.63-4.034-0.517-0.714 0.115 0.058 1.744-0.4 2.549C50.959 36.146 50.301 36.72 50.301 36.72z" fill="#8d021f" data-fill-palette-color="accent"></path></svg></g></svg></g><g><rect width="70.71592690198452" height="5.027273304529293" y="109.53513853712303" x="250.24855309801546" fill="#8d021f" data-fill-palette-color="secondary"></rect><rect width="70.71592690198452" height="5.027273304529293" y="109.53513853712303" x="76.53311999999997" fill="#8d021f" data-fill-palette-color="secondary"></rect></g></svg></g><defs></defs></svg><rect width="395.52" height="201.64870439195565" fill="none" stroke="none" visibility="hidden"></rect></g></svg></g></svg>